<svg xmlns="http://www.w3.org/2000/svg" viewBox="0 0 64 64" fill="none">
  <path d="M14 44c10-2 18-10 22-18 2-4 3-8 3-12 0-2 1-4 4-4h5c-2 9-2 18 0 27 1 5 2 9 2 13 0 3-2 6-6 6H20c-4 0-7-3-7-7v-5c0-2 0-3 1-4Z" stroke="rgba(233,240,238,.9)" stroke-width="2" stroke-linecap="round" stroke-linejoin="round"/>
  <path d="M18 47c7 0 15-6 20-14" stroke="rgba(201,168,106,.95)" stroke-width="2" stroke-linecap="round"/>
  <path d="M43 10c-1 6-5 16-12 25" stroke="rgba(93,167,160,.95)" stroke-width="2" stroke-linecap="round"/>
</svg>